<svg width="32" height="32" viewBox="0 0 32 32" fill="none" xmlns="http://www.w3.org/2000/svg">
<path d="M29.654 19.4L29.93 17.892C30.0596 17.1404 29.9975 16.3681 29.7493 15.6469C29.501 14.9256 29.0748 14.2787 28.51 13.766C25.766 11.246 21.48 9.99204 15.65 10C9.82999 10.008 5.67399 11.272 3.18199 13.79C2.12599 14.856 1.74199 16.438 2.17199 17.94L2.60399 19.448C3.00799 20.856 4.37199 21.798 5.79199 21.648L8.63999 21.35C9.23202 21.2918 9.78824 21.0396 10.2222 20.6328C10.6562 20.2259 10.9437 19.6871 11.04 19.1L11.588 15.892C12.9648 15.2477 14.4603 14.8963 15.98 14.86C17.554 14.812 18.996 15.066 20.304 15.624L21.188 19.052C21.506 20.286 22.568 21.208 23.818 21.332L26.682 21.62C27.3665 21.6972 28.0548 21.5105 28.6066 21.0981C29.1583 20.6857 29.5322 20.0784 29.652 19.4H29.654Z" fill="#FF3D00" fill-opacity="0.8"/>
</svg>
