<svg width="33" height="33" viewBox="0 0 33 33" fill="none" xmlns="http://www.w3.org/2000/svg">
<g clip-path="url(#clip0)">
<path d="M0.170288 4.60394C0.170288 3.54308 0.591716 2.52566 1.34186 1.77552C2.09201 1.02537 3.10942 0.603943 4.17029 0.603943L28.1703 0.603943C29.2312 0.603943 30.2486 1.02537 30.9987 1.77552C31.7489 2.52566 32.1703 3.54308 32.1703 4.60394V20.6039C32.1703 21.6648 31.7489 22.6822 30.9987 23.4324C30.2486 24.1825 29.2312 24.6039 28.1703 24.6039H8.99829C8.4679 24.6041 7.95927 24.8148 7.58429 25.1899L1.87829 30.8959C1.73855 31.036 1.56039 31.1315 1.36636 31.1703C1.17233 31.2091 0.971151 31.1895 0.788287 31.1139C0.605422 31.0383 0.449092 30.9102 0.339083 30.7457C0.229073 30.5812 0.17033 30.3878 0.170288 30.1899L0.170288 4.60394ZM7.17029 6.60394C6.90507 6.60394 6.65072 6.7093 6.46318 6.89684C6.27565 7.08437 6.17029 7.33873 6.17029 7.60394C6.17029 7.86916 6.27565 8.12351 6.46318 8.31105C6.65072 8.49859 6.90507 8.60394 7.17029 8.60394H25.1703C25.4355 8.60394 25.6899 8.49859 25.8774 8.31105C26.0649 8.12351 26.1703 7.86916 26.1703 7.60394C26.1703 7.33873 26.0649 7.08437 25.8774 6.89684C25.6899 6.7093 25.4355 6.60394 25.1703 6.60394H7.17029ZM7.17029 11.6039C6.90507 11.6039 6.65072 11.7093 6.46318 11.8968C6.27565 12.0844 6.17029 12.3387 6.17029 12.6039C6.17029 12.8692 6.27565 13.1235 6.46318 13.311C6.65072 13.4986 6.90507 13.6039 7.17029 13.6039H25.1703C25.4355 13.6039 25.6899 13.4986 25.8774 13.311C26.0649 13.1235 26.1703 12.8692 26.1703 12.6039C26.1703 12.3387 26.0649 12.0844 25.8774 11.8968C25.6899 11.7093 25.4355 11.6039 25.1703 11.6039H7.17029ZM7.17029 16.6039C6.90507 16.6039 6.65072 16.7093 6.46318 16.8968C6.27565 17.0844 6.17029 17.3387 6.17029 17.6039C6.17029 17.8692 6.27565 18.1235 6.46318 18.3111C6.65072 18.4986 6.90507 18.6039 7.17029 18.6039H17.1703C17.4355 18.6039 17.6899 18.4986 17.8774 18.3111C18.0649 18.1235 18.1703 17.8692 18.1703 17.6039C18.1703 17.3387 18.0649 17.0844 17.8774 16.8968C17.6899 16.7093 17.4355 16.6039 17.1703 16.6039H7.17029Z" fill="#1687A7"/>
</g>
<defs>
<clipPath id="clip0">
<rect width="32" height="32" fill="white" transform="translate(0.170288 0.603943)"/>
</clipPath>
</defs>
</svg>
