<svg width="33" height="32" viewBox="0 0 33 32" fill="none" xmlns="http://www.w3.org/2000/svg">
<path d="M28.1703 2.60391C28.7007 2.60391 29.2094 2.81463 29.5845 3.1897C29.9596 3.56477 30.1703 4.07348 30.1703 4.60391V20.6039C30.1703 21.1343 29.9596 21.6431 29.5845 22.0181C29.2094 22.3932 28.7007 22.6039 28.1703 22.6039H8.99829C7.93751 22.6041 6.92026 23.0257 6.17029 23.7759L2.17029 27.7759V4.60391C2.17029 4.07348 2.381 3.56477 2.75607 3.1897C3.13115 2.81463 3.63986 2.60391 4.17029 2.60391H28.1703ZM4.17029 0.603912C3.10942 0.603912 2.09201 1.02534 1.34186 1.77549C0.591716 2.52563 0.170288 3.54305 0.170288 4.60391L0.170288 30.1899C0.17033 30.3878 0.229073 30.5812 0.339083 30.7457C0.449092 30.9101 0.605422 31.0383 0.788287 31.1139C0.971151 31.1894 1.17233 31.2091 1.36636 31.1703C1.56039 31.1315 1.73855 31.036 1.87829 30.8959L7.58429 25.1899C7.95927 24.8148 8.4679 24.604 8.99829 24.6039H28.1703C29.2312 24.6039 30.2486 24.1825 30.9987 23.4323C31.7489 22.6822 32.1703 21.6648 32.1703 20.6039V4.60391C32.1703 3.54305 31.7489 2.52563 30.9987 1.77549C30.2486 1.02534 29.2312 0.603912 28.1703 0.603912L4.17029 0.603912Z" fill="#1687A7"/>
<path d="M6.17029 7.60391C6.17029 7.3387 6.27565 7.08434 6.46318 6.89681C6.65072 6.70927 6.90507 6.60391 7.17029 6.60391H25.1703C25.4355 6.60391 25.6899 6.70927 25.8774 6.89681C26.0649 7.08434 26.1703 7.3387 26.1703 7.60391C26.1703 7.86913 26.0649 8.12348 25.8774 8.31102C25.6899 8.49856 25.4355 8.60391 25.1703 8.60391H7.17029C6.90507 8.60391 6.65072 8.49856 6.46318 8.31102C6.27565 8.12348 6.17029 7.86913 6.17029 7.60391ZM6.17029 12.6039C6.17029 12.3387 6.27565 12.0843 6.46318 11.8968C6.65072 11.7093 6.90507 11.6039 7.17029 11.6039H25.1703C25.4355 11.6039 25.6899 11.7093 25.8774 11.8968C26.0649 12.0843 26.1703 12.3387 26.1703 12.6039C26.1703 12.8691 26.0649 13.1235 25.8774 13.311C25.6899 13.4986 25.4355 13.6039 25.1703 13.6039H7.17029C6.90507 13.6039 6.65072 13.4986 6.46318 13.311C6.27565 13.1235 6.17029 12.8691 6.17029 12.6039ZM6.17029 17.6039C6.17029 17.3387 6.27565 17.0843 6.46318 16.8968C6.65072 16.7093 6.90507 16.6039 7.17029 16.6039H17.1703C17.4355 16.6039 17.6899 16.7093 17.8774 16.8968C18.0649 17.0843 18.1703 17.3387 18.1703 17.6039C18.1703 17.8691 18.0649 18.1235 17.8774 18.311C17.6899 18.4986 17.4355 18.6039 17.1703 18.6039H7.17029C6.90507 18.6039 6.65072 18.4986 6.46318 18.311C6.27565 18.1235 6.17029 17.8691 6.17029 17.6039Z" fill="#1687A7"/>
</svg>
