<svg width="36" height="36" viewBox="0 0 36 36" fill="none" xmlns="http://www.w3.org/2000/svg">
<path d="M28.5 6H7.5C6.30653 6 5.16193 6.47411 4.31802 7.31802C3.47411 8.16193 3 9.30653 3 10.5V25.5C3 26.6935 3.47411 27.8381 4.31802 28.682C5.16193 29.5259 6.30653 30 7.5 30H28.5C29.6935 30 30.8381 29.5259 31.682 28.682C32.5259 27.8381 33 26.6935 33 25.5V10.5C33 9.30653 32.5259 8.16193 31.682 7.31802C30.8381 6.47411 29.6935 6 28.5 6ZM28.5 9L18.75 15.705C18.522 15.8367 18.2633 15.906 18 15.906C17.7367 15.906 17.478 15.8367 17.25 15.705L7.5 9H28.5Z" fill="#1687A7"/>
</svg>
