<svg width="32" height="32" viewBox="0 0 32 32" fill="none" xmlns="http://www.w3.org/2000/svg">
<path d="M14.07 3.56701C14.6105 3.11279 15.294 2.86377 16 2.86377C16.706 2.86377 17.3895 3.11279 17.93 3.56701L26.93 11.135C27.265 11.4165 27.5344 11.7679 27.7192 12.1645C27.9041 12.5612 27.9999 12.9934 28 13.431V26.001C28 26.5314 27.7893 27.0402 27.4142 27.4152C27.0391 27.7903 26.5304 28.001 26 28.001H20.5C19.9696 28.001 19.4609 27.7903 19.0858 27.4152C18.7107 27.0402 18.5 26.5314 18.5 26.001V19.001H13.5V26.001C13.5 26.5314 13.2893 27.0402 12.9142 27.4152C12.5391 27.7903 12.0304 28.001 11.5 28.001H6C5.46957 28.001 4.96086 27.7903 4.58579 27.4152C4.21071 27.0402 4 26.5314 4 26.001V13.43C4.00011 12.9924 4.09595 12.5602 4.28079 12.1635C4.46562 11.7669 4.73499 11.4155 5.07 11.134L14.07 3.56601V3.56701Z" fill="#1687A7"/>
</svg>
