<svg width="32" height="32" viewBox="0 0 32 32" fill="none" xmlns="http://www.w3.org/2000/svg">
<path d="M14.07 3.56701C14.6105 3.11279 15.294 2.86377 16 2.86377C16.706 2.86377 17.3895 3.11279 17.93 3.56701L26.93 11.135C27.265 11.4165 27.5344 11.7679 27.7192 12.1645C27.9041 12.5612 27.9999 12.9934 28 13.431V26.001C28 26.5314 27.7893 27.0402 27.4142 27.4152C27.0391 27.7903 26.5304 28.001 26 28.001H20.5C19.9696 28.001 19.4609 27.7903 19.0858 27.4152C18.7107 27.0402 18.5 26.5314 18.5 26.001V19.001H13.5V26.001C13.5 26.5314 13.2893 27.0402 12.9142 27.4152C12.5391 27.7903 12.0304 28.001 11.5 28.001H6C5.46957 28.001 4.96086 27.7903 4.58579 27.4152C4.21071 27.0402 4 26.5314 4 26.001V13.43C4.00011 12.9924 4.09595 12.5602 4.28079 12.1635C4.46562 11.7669 4.73499 11.4155 5.07 11.134L14.07 3.56601V3.56701ZM16.644 5.09701C16.4637 4.94525 16.2356 4.86204 16 4.86204C15.7644 4.86204 15.5363 4.94525 15.356 5.09701L6.356 12.667C6.24475 12.7607 6.15527 12.8774 6.09378 13.0092C6.0323 13.141 6.00029 13.2846 6 13.43V26H11.5V19C11.5 18.4696 11.7107 17.9609 12.0858 17.5858C12.4609 17.2107 12.9696 17 13.5 17H18.5C19.0304 17 19.5391 17.2107 19.9142 17.5858C20.2893 17.9609 20.5 18.4696 20.5 19V26H26V13.43C26 13.2843 25.9681 13.1403 25.9066 13.0081C25.8451 12.876 25.7555 12.7589 25.644 12.665L16.644 5.09701Z" fill="#1687A7"/>
</svg>
