<svg width="32" height="32" viewBox="0 0 32 32" fill="none" xmlns="http://www.w3.org/2000/svg">
<g clip-path="url(#clip0)">
<path d="M26 16C26 17.128 25.812 18.214 25.468 19.226L23.84 17.598C23.9465 17.072 24.0001 16.5367 24 16V14C24 13.7348 24.1054 13.4805 24.2929 13.2929C24.4804 13.1054 24.7348 13 25 13C25.2652 13 25.5196 13.1054 25.7071 13.2929C25.8946 13.4805 26 13.7348 26 14V16ZM16 24C17.636 24 19.156 23.51 20.424 22.666L21.86 24.104C20.4323 25.1393 18.755 25.7764 17 25.95V30H23C23.2652 30 23.5196 30.1054 23.7071 30.2929C23.8946 30.4805 24 30.7348 24 31C24 31.2652 23.8946 31.5196 23.7071 31.7071C23.5196 31.8947 23.2652 32 23 32H9C8.73478 32 8.48043 31.8947 8.29289 31.7071C8.10536 31.5196 8 31.2652 8 31C8 30.7348 8.10536 30.4805 8.29289 30.2929C8.48043 30.1054 8.73478 30 9 30H15V25.95C12.5334 25.7021 10.2467 24.5468 8.58376 22.7083C6.92077 20.8698 5.99997 18.4791 6 16V14C6 13.7348 6.10536 13.4805 6.29289 13.2929C6.48043 13.1054 6.73478 13 7 13C7.26522 13 7.51957 13.1054 7.70711 13.2929C7.89464 13.4805 8 13.7348 8 14V16C8 18.1218 8.84285 20.1566 10.3431 21.6569C11.8434 23.1572 13.8783 24 16 24ZM22 6.00002V15.758L20 13.758V6.00002C20.0046 4.95654 19.6013 3.95257 18.8761 3.20229C18.1508 2.45202 17.1611 2.01485 16.1181 1.98406C15.075 1.95326 14.0613 2.33128 13.293 3.03747C12.5248 3.74365 12.0629 4.72209 12.006 5.76402L10.316 4.07402C10.7739 2.72851 11.6944 1.58914 12.9137 0.858757C14.1329 0.128376 15.5718 -0.14562 16.9742 0.0855477C18.3766 0.316715 19.6514 1.03804 20.5717 2.12112C21.4921 3.2042 21.9982 4.57873 22 6.00002Z" fill="#1687A7"/>
<path d="M18.972 21.214L17.476 19.718C16.8692 19.9589 16.2127 20.0476 15.5638 19.9764C14.9149 19.9052 14.2932 19.6763 13.7531 19.3096C13.213 18.9429 12.7709 18.4495 12.4653 17.8726C12.1597 17.2957 11.9999 16.6528 12 16V14.244L9.99999 12.244V16C9.99968 17.0506 10.2753 18.0829 10.7991 18.9936C11.323 19.9043 12.0769 20.6615 12.9853 21.1894C13.8936 21.7173 14.9247 21.9974 15.9753 22.0017C17.026 22.006 18.0593 21.7344 18.972 21.214ZM3.29199 2.70799L27.292 26.708L28.708 25.292L4.70799 1.29199L3.29199 2.70799Z" fill="#1687A7"/>
</g>
<defs>
<clipPath id="clip0">
<rect width="32" height="32" fill="white"/>
</clipPath>
</defs>
</svg>
