<svg width="33" height="25" viewBox="0 0 33 25" fill="none" xmlns="http://www.w3.org/2000/svg">
<path d="M14.1703 24.6039C14.1703 24.6039 12.1703 24.6039 12.1703 22.6039C12.1703 20.6039 14.1703 14.6039 22.1703 14.6039C30.1703 14.6039 32.1703 20.6039 32.1703 22.6039C32.1703 24.6039 30.1703 24.6039 30.1703 24.6039H14.1703ZM22.1703 12.6039C23.7616 12.6039 25.2877 11.9718 26.4129 10.8466C27.5381 9.72136 28.1703 8.19524 28.1703 6.60394C28.1703 5.01264 27.5381 3.48652 26.4129 2.3613C25.2877 1.23608 23.7616 0.603943 22.1703 0.603943C20.579 0.603943 19.0529 1.23608 17.9276 2.3613C16.8024 3.48652 16.1703 5.01264 16.1703 6.60394C16.1703 8.19524 16.8024 9.72136 17.9276 10.8466C19.0529 11.9718 20.579 12.6039 22.1703 12.6039Z" fill="#1687A7"/>
<path fill-rule="evenodd" clip-rule="evenodd" d="M10.6023 24.6039C10.3058 23.9796 10.1579 23.295 10.1703 22.6039C10.1703 19.8939 11.5303 17.1039 14.0423 15.1639C12.7885 14.7776 11.4822 14.5887 10.1703 14.6039C2.17029 14.6039 0.170288 20.6039 0.170288 22.6039C0.170288 24.6039 2.17029 24.6039 2.17029 24.6039H10.6023Z" fill="#1687A7"/>
<path d="M9.17029 12.6039C10.4964 12.6039 11.7681 12.0772 12.7058 11.1395C13.6435 10.2018 14.1703 8.93003 14.1703 7.60394C14.1703 6.27786 13.6435 5.00609 12.7058 4.06841C11.7681 3.13073 10.4964 2.60394 9.17029 2.60394C7.84421 2.60394 6.57244 3.13073 5.63475 4.06841C4.69707 5.00609 4.17029 6.27786 4.17029 7.60394C4.17029 8.93003 4.69707 10.2018 5.63475 11.1395C6.57244 12.0772 7.84421 12.6039 9.17029 12.6039Z" fill="#1687A7"/>
</svg>
