<svg width="36" height="36" viewBox="0 0 36 36" fill="none" xmlns="http://www.w3.org/2000/svg">
<path d="M23.625 2.25C22.0439 2.24964 20.4847 2.61964 19.0724 3.33035C17.6601 4.04106 16.4338 5.07272 15.492 6.34266C14.5501 7.61259 13.9189 9.08549 13.6488 10.6433C13.3786 12.2012 13.4772 13.8006 13.9365 15.3135L2.25 27V33.75H9L20.6865 22.0635C22.0791 22.4862 23.5465 22.6037 24.9887 22.4081C26.4309 22.2124 27.8139 21.7081 29.0436 20.9295C30.2732 20.151 31.3206 19.1165 32.1142 17.8966C32.9079 16.6767 33.4293 15.3 33.6428 13.8604C33.8563 12.4207 33.7569 10.952 33.3515 9.55422C32.946 8.15646 32.244 6.86254 31.2932 5.76063C30.3425 4.65872 29.1653 3.77474 27.842 3.16891C26.5187 2.56309 25.0804 2.24966 23.625 2.25ZM23.625 20.25C22.8505 20.2496 22.0802 20.1351 21.339 19.9102L20.0486 19.5188L19.0958 20.4716L15.5171 24.0503L13.9657 22.5L12.375 24.0907L13.9264 25.6421L12.1421 27.4264L10.5907 25.875L9 27.4657L10.5514 29.0171L8.0685 31.5H4.5V27.9315L15.5273 16.9042L16.4812 15.9514L16.0898 14.661C15.6089 13.0759 15.6401 11.3795 16.179 9.81311C16.7179 8.24676 17.737 6.89021 19.0913 5.93643C20.4456 4.98265 22.0662 4.48022 23.7225 4.5006C25.3789 4.52097 26.9866 5.06313 28.317 6.04993C29.6475 7.03674 30.6329 8.41795 31.1331 9.99709C31.6332 11.5762 31.6227 13.2729 31.103 14.8457C30.5833 16.4185 29.5809 17.7874 28.2383 18.7577C26.8958 19.7279 25.2815 20.2501 23.625 20.25Z" fill="#1687A7"/>
<path d="M24.75 13.5C25.9926 13.5 27 12.4926 27 11.25C27 10.0074 25.9926 9 24.75 9C23.5074 9 22.5 10.0074 22.5 11.25C22.5 12.4926 23.5074 13.5 24.75 13.5Z" fill="#1687A7"/>
</svg>
