<svg width="33" height="33" viewBox="0 0 33 33" fill="none" xmlns="http://www.w3.org/2000/svg">
<path d="M27.1703 17.3639V16.6039V15.8339L29.0903 14.1539C29.4442 13.842 29.6765 13.4149 29.746 12.9483C29.8155 12.4817 29.7179 12.0055 29.4703 11.6039L27.1103 7.60391C26.9349 7.30017 26.6828 7.04789 26.3791 6.87237C26.0755 6.69685 25.731 6.60427 25.3803 6.60391C25.1629 6.60224 24.9468 6.63602 24.7403 6.70391L22.3103 7.52391C21.8908 7.24511 21.4531 6.99456 21.0003 6.77391L20.4903 4.25391C20.3989 3.79351 20.1484 3.37995 19.7828 3.08561C19.4171 2.79127 18.9596 2.63491 18.4903 2.64391H13.8103C13.341 2.63491 12.8835 2.79127 12.5178 3.08561C12.1522 3.37995 11.9017 3.79351 11.8103 4.25391L11.3003 6.77391C10.8442 6.99451 10.4033 7.24506 9.9803 7.52391L7.6003 6.66391C7.39159 6.60953 7.17547 6.58927 6.9603 6.60391C6.60957 6.60427 6.26511 6.69685 5.96146 6.87237C5.65781 7.04789 5.40566 7.30017 5.2303 7.60391L2.8703 11.6039C2.63688 12.0049 2.55015 12.4746 2.62495 12.9325C2.69974 13.3904 2.93142 13.808 3.2803 14.1139L5.1703 15.8439V17.3739L3.2803 19.0539C2.92157 19.3619 2.68355 19.787 2.6085 20.2539C2.53344 20.7207 2.62619 21.199 2.8703 21.6039L5.2303 25.6039C5.40566 25.9076 5.65781 26.1599 5.96146 26.3354C6.26511 26.511 6.60957 26.6035 6.9603 26.6039C7.17765 26.6056 7.39381 26.5718 7.6003 26.5039L10.0303 25.6839C10.4498 25.9627 10.8875 26.2133 11.3403 26.4339L11.8503 28.9539C11.9417 29.4143 12.1922 29.8279 12.5578 30.1222C12.9235 30.4165 13.381 30.5729 13.8503 30.5639H18.5703C19.0396 30.5729 19.4971 30.4165 19.8628 30.1222C20.2284 29.8279 20.4789 29.4143 20.5703 28.9539L21.0803 26.4339C21.5364 26.2133 21.9773 25.9628 22.4003 25.6839L24.8203 26.5039C25.0268 26.5718 25.2429 26.6056 25.4603 26.6039C25.811 26.6035 26.1555 26.511 26.4591 26.3354C26.7628 26.1599 27.0149 25.9076 27.1903 25.6039L29.4703 21.6039C29.7037 21.2029 29.7904 20.7332 29.7156 20.2753C29.6409 19.8174 29.4092 19.3998 29.0603 19.0939L27.1703 17.3639ZM25.3803 24.6039L21.9503 23.4439C21.1474 24.124 20.2297 24.6557 19.2403 25.0139L18.5303 28.6039H13.8103L13.1003 25.0539C12.1187 24.6855 11.206 24.1548 10.4003 23.4839L6.9603 24.6039L4.6003 20.6039L7.3203 18.2039C7.13539 17.1688 7.13539 16.109 7.3203 15.0739L4.6003 12.6039L6.9603 8.60391L10.3903 9.76391C11.1932 9.0838 12.1109 8.55216 13.1003 8.19391L13.8103 4.60391H18.5303L19.2403 8.15391C20.2219 8.52233 21.1346 9.05305 21.9403 9.72391L25.3803 8.60391L27.7403 12.6039L25.0203 15.0039C25.2052 16.039 25.2052 17.0988 25.0203 18.1339L27.7403 20.6039L25.3803 24.6039Z" fill="#1687A7"/>
<path d="M16.1703 22.6039C14.9836 22.6039 13.8236 22.252 12.8369 21.5927C11.8502 20.9334 11.0811 19.9964 10.627 18.9C10.1729 17.8037 10.0541 16.5973 10.2856 15.4334C10.5171 14.2695 11.0885 13.2004 11.9276 12.3613C12.7668 11.5222 13.8359 10.9507 14.9997 10.7192C16.1636 10.4877 17.37 10.6065 18.4664 11.0606C19.5627 11.5148 20.4998 12.2838 21.1591 13.2705C21.8184 14.2572 22.1703 15.4172 22.1703 16.6039C22.1783 17.3941 22.0286 18.1779 21.7299 18.9095C21.4312 19.6411 20.9896 20.3057 20.4308 20.8644C19.8721 21.4232 19.2074 21.8648 18.4758 22.1635C17.7443 22.4622 16.9605 22.6119 16.1703 22.6039ZM16.1703 12.6039C15.6416 12.5916 15.116 12.6866 14.6251 12.8833C14.1342 13.08 13.6884 13.3741 13.3144 13.7481C12.9405 14.122 12.6463 14.5679 12.4497 15.0587C12.253 15.5496 12.158 16.0753 12.1703 16.6039C12.158 17.1326 12.253 17.6582 12.4497 18.1491C12.6463 18.64 12.9405 19.0858 13.3144 19.4598C13.6884 19.8337 14.1342 20.1279 14.6251 20.3245C15.116 20.5212 15.6416 20.6162 16.1703 20.6039C16.6989 20.6162 17.2246 20.5212 17.7155 20.3245C18.2063 20.1279 18.6522 19.8337 19.0261 19.4598C19.4001 19.0858 19.6942 18.64 19.8909 18.1491C20.0876 17.6582 20.1826 17.1326 20.1703 16.6039C20.1826 16.0753 20.0876 15.5496 19.8909 15.0587C19.6942 14.5679 19.4001 14.122 19.0261 13.7481C18.6522 13.3741 18.2063 13.08 17.7155 12.8833C17.2246 12.6866 16.6989 12.5916 16.1703 12.6039Z" fill="#1687A7"/>
</svg>
