<svg width="32" height="32" viewBox="0 0 32 32" fill="none" xmlns="http://www.w3.org/2000/svg">
<path d="M30.57 13.72L27.22 12.72C26.9884 11.9113 26.6699 11.1301 26.27 10.39L27.91 7.31997C27.9715 7.20409 27.9941 7.07145 27.9743 6.94175C27.9544 6.81205 27.8933 6.69219 27.8 6.59997L25.41 4.19997C25.3178 4.10664 25.1979 4.04553 25.0682 4.02572C24.9385 4.0059 24.8059 4.02843 24.69 4.08997L21.64 5.71997C20.8926 5.30063 20.1011 4.96526 19.28 4.71997L18.28 1.40997C18.2377 1.28799 18.1578 1.18257 18.0518 1.10889C17.9457 1.03521 17.8191 0.997078 17.69 0.99997H14.31C14.1801 1.00057 14.0539 1.0426 13.9495 1.11994C13.8452 1.19728 13.7683 1.30589 13.73 1.42997L12.73 4.72997C11.902 4.97395 11.1038 5.30935 10.35 5.72997L7.35 4.10997C7.23412 4.04843 7.10148 4.0259 6.97178 4.04572C6.84208 4.06553 6.72222 4.12664 6.63 4.21997L4.2 6.58997C4.10667 6.68219 4.04556 6.80205 4.02575 6.93175C4.00593 7.06145 4.02846 7.19409 4.09 7.30997L5.71 10.31C5.29006 11.0606 4.95467 11.8554 4.71 12.68L1.4 13.68C1.27592 13.7183 1.16731 13.7952 1.08997 13.8995C1.01264 14.0038 0.970606 14.1301 0.970001 14.26V17.64C0.970606 17.7698 1.01264 17.8961 1.08997 18.0004C1.16731 18.1047 1.27592 18.1817 1.4 18.22L4.73 19.22C4.97735 20.0308 5.31268 20.8121 5.73 21.55L4.09 24.69C4.02846 24.8059 4.00593 24.9385 4.02575 25.0682C4.04556 25.1979 4.10667 25.3177 4.2 25.41L6.59 27.8C6.68222 27.8933 6.80208 27.9544 6.93178 27.9742C7.06148 27.994 7.19412 27.9715 7.31 27.91L10.4 26.26C11.131 26.6544 11.902 26.9695 12.7 27.2L13.7 30.57C13.7383 30.694 13.8152 30.8027 13.9195 30.88C14.0239 30.9573 14.1501 30.9994 14.28 31H17.66C17.7899 30.9994 17.9161 30.9573 18.0205 30.88C18.1248 30.8027 18.2017 30.694 18.24 30.57L19.24 27.19C20.0312 26.9583 20.7955 26.6432 21.52 26.25L24.63 27.91C24.7459 27.9715 24.8785 27.994 25.0082 27.9742C25.1379 27.9544 25.2578 27.8933 25.35 27.8L27.74 25.41C27.8333 25.3177 27.8944 25.1979 27.9143 25.0682C27.9341 24.9385 27.9115 24.8059 27.85 24.69L26.19 21.59C26.5874 20.8627 26.9058 20.095 27.14 19.3L30.51 18.3C30.6341 18.2617 30.7427 18.1847 30.82 18.0804C30.8974 17.9761 30.9394 17.8498 30.94 17.72V14.31C30.9459 14.1856 30.9136 14.0624 30.8475 13.957C30.7813 13.8515 30.6845 13.7688 30.57 13.72ZM16 21.5C14.9122 21.5 13.8488 21.1774 12.9444 20.5731C12.0399 19.9687 11.3349 19.1097 10.9187 18.1047C10.5024 17.0997 10.3935 15.9939 10.6057 14.927C10.8179 13.8601 11.3417 12.8801 12.1109 12.1109C12.8801 11.3417 13.8601 10.8179 14.927 10.6057C15.9939 10.3934 17.0998 10.5024 18.1048 10.9186C19.1098 11.3349 19.9687 12.0399 20.5731 12.9443C21.1774 13.8488 21.5 14.9122 21.5 16C21.5 17.4587 20.9205 18.8576 19.8891 19.8891C18.8576 20.9205 17.4587 21.5 16 21.5Z" fill="#1687A7"/>
</svg>
