<svg width="33" height="25" viewBox="0 0 33 25" fill="none" xmlns="http://www.w3.org/2000/svg">
<path d="M30.1703 24.6039C30.1703 24.6039 32.1703 24.6039 32.1703 22.6039C32.1703 20.6039 30.1703 14.6039 22.1703 14.6039C14.1703 14.6039 12.1703 20.6039 12.1703 22.6039C12.1703 24.6039 14.1703 24.6039 14.1703 24.6039H30.1703ZM14.2143 22.6039C14.1995 22.6019 14.1848 22.5992 14.1703 22.5959C14.1723 22.0679 14.5043 20.5359 15.6903 19.1559C16.7943 17.8619 18.7343 16.6039 22.1703 16.6039C25.6043 16.6039 27.5443 17.8639 28.6503 19.1559C29.8363 20.5359 30.1663 22.0699 30.1703 22.5959L30.1543 22.5999C30.145 22.6015 30.1357 22.6028 30.1263 22.6039H14.2143ZM22.1703 10.6039C23.2312 10.6039 24.2486 10.1825 24.9987 9.43234C25.7489 8.68219 26.1703 7.66478 26.1703 6.60391C26.1703 5.54305 25.7489 4.52563 24.9987 3.77549C24.2486 3.02534 23.2312 2.60391 22.1703 2.60391C21.1094 2.60391 20.092 3.02534 19.3419 3.77549C18.5917 4.52563 18.1703 5.54305 18.1703 6.60391C18.1703 7.66478 18.5917 8.68219 19.3419 9.43234C20.092 10.1825 21.1094 10.6039 22.1703 10.6039ZM28.1703 6.60391C28.1703 7.39184 28.0151 8.17206 27.7136 8.90001C27.412 9.62797 26.9701 10.2894 26.4129 10.8466C25.8558 11.4037 25.1943 11.8457 24.4664 12.1472C23.7384 12.4487 22.9582 12.6039 22.1703 12.6039C21.3824 12.6039 20.6021 12.4487 19.8742 12.1472C19.1462 11.8457 18.4848 11.4037 17.9276 10.8466C17.3705 10.2894 16.9285 9.62797 16.627 8.90001C16.3255 8.17206 16.1703 7.39184 16.1703 6.60391C16.1703 5.01261 16.8024 3.48649 17.9276 2.36127C19.0529 1.23605 20.579 0.603912 22.1703 0.603912C23.7616 0.603912 25.2877 1.23605 26.4129 2.36127C27.5381 3.48649 28.1703 5.01261 28.1703 6.60391ZM14.0423 15.1639C13.2423 14.912 12.4176 14.7464 11.5823 14.6699C11.113 14.6253 10.6417 14.6033 10.1703 14.6039C2.17029 14.6039 0.170288 20.6039 0.170288 22.6039C0.170288 23.9379 0.836288 24.6039 2.17029 24.6039H10.6023C10.3058 23.9795 10.1579 23.295 10.1703 22.6039C10.1703 20.5839 10.9243 18.5199 12.3503 16.7959C12.8363 16.2079 13.4023 15.6579 14.0423 15.1639ZM10.0103 16.6039C8.8266 18.3825 8.18717 20.4675 8.17029 22.6039H2.17029C2.17029 22.0839 2.49829 20.5439 3.69029 19.1559C4.78029 17.8839 6.67429 16.6439 10.0103 16.6059V16.6039ZM3.17029 7.60391C3.17029 6.01261 3.80243 4.48649 4.92765 3.36127C6.05287 2.23605 7.57899 1.60391 9.17029 1.60391C10.7616 1.60391 12.2877 2.23605 13.4129 3.36127C14.5381 4.48649 15.1703 6.01261 15.1703 7.60391C15.1703 9.19521 14.5381 10.7213 13.4129 11.8466C12.2877 12.9718 10.7616 13.6039 9.17029 13.6039C7.57899 13.6039 6.05287 12.9718 4.92765 11.8466C3.80243 10.7213 3.17029 9.19521 3.17029 7.60391ZM9.17029 3.60391C8.10942 3.60391 7.09201 4.02534 6.34186 4.77549C5.59172 5.52563 5.17029 6.54305 5.17029 7.60391C5.17029 8.66478 5.59172 9.68219 6.34186 10.4323C7.09201 11.1825 8.10942 11.6039 9.17029 11.6039C10.2312 11.6039 11.2486 11.1825 11.9987 10.4323C12.7489 9.68219 13.1703 8.66478 13.1703 7.60391C13.1703 6.54305 12.7489 5.52563 11.9987 4.77549C11.2486 4.02534 10.2312 3.60391 9.17029 3.60391Z" fill="#1687A7"/>
</svg>
