<svg width="28" height="25" viewBox="0 0 28 25" fill="none" xmlns="http://www.w3.org/2000/svg">
<path d="M22.0133 11.3267L22.6853 9.74401C23 9.00268 23.7533 8.59734 24.4933 8.75201L24.6506 8.79334L25.4906 9.06268C26.3253 9.32934 26.9626 10.0427 27.1693 10.9387C27.6586 13.0693 27.0706 15.6627 25.4066 18.72C23.744 21.772 21.9213 23.6067 19.94 24.2253C19.5619 24.3425 19.1604 24.3621 18.7727 24.2824C18.385 24.2027 18.0238 24.0262 17.7226 23.7693L17.5573 23.6173L16.92 22.9773C16.6518 22.7013 16.4785 22.347 16.4251 21.9659C16.3716 21.5848 16.4408 21.1965 16.6226 20.8573L16.7173 20.7013L17.68 19.288C18.0573 18.732 18.7066 18.4693 19.3293 18.6013L19.4986 18.648L21.2746 19.24C21.9953 18.6903 22.5983 18.0016 23.048 17.2147C23.4368 16.5609 23.7059 15.843 23.8426 15.0947L23.8933 14.7347L22.4146 13.332C22.1758 13.0994 22.0061 12.8053 21.9242 12.4822C21.8423 12.1591 21.8514 11.8196 21.9506 11.5013L22.0133 11.3267L22.6853 9.74401L22.0146 11.3267H22.0133ZM24.3266 0.333344C25.1223 0.333344 25.8853 0.649414 26.4479 1.21202C27.0106 1.77463 27.3266 2.53769 27.3266 3.33334L27.328 8.63868C26.9893 8.3189 26.5941 8.06481 26.1626 7.88934L25.896 7.79201L25.3266 7.60934V3.33334C25.3266 3.06813 25.2213 2.81377 25.0337 2.62624C24.8462 2.4387 24.5918 2.33334 24.3266 2.33334H3.66663C3.40141 2.33334 3.14706 2.4387 2.95952 2.62624C2.77198 2.81377 2.66663 3.06813 2.66663 3.33334V18.6733C2.66663 19.2253 3.11463 19.6733 3.66663 19.6733L7.33196 19.672L7.33329 16C7.33331 15.4144 7.55352 14.8503 7.9502 14.4195C8.34688 13.9887 8.89103 13.7229 9.47463 13.6747L9.66663 13.6667H18.3266C18.9124 13.6667 19.4768 13.8871 19.9076 14.2841C20.3384 14.681 20.6041 15.2255 20.652 15.8093L20.66 16L20.6586 17.6293L19.92 17.3827L19.6986 17.3187C19.1547 17.1862 18.5841 17.2131 18.0549 17.3961C17.5258 17.5791 17.0605 17.9105 16.7146 18.3507L16.576 18.5373L15.6146 19.9507L15.484 20.16C15.2173 20.6293 15.0813 21.152 15.0746 21.672H3.66663C2.87121 21.672 2.10835 21.3561 1.54578 20.7938C0.983206 20.2315 0.666979 19.4688 0.666626 18.6733V3.33334C0.666626 2.53769 0.982696 1.77463 1.54531 1.21202C2.10791 0.649414 2.87098 0.333344 3.66663 0.333344H24.3266ZM14 4.33334C15.0608 4.33334 16.0782 4.75477 16.8284 5.50492C17.5785 6.25506 18 7.27248 18 8.33334C18 9.39421 17.5785 10.4116 16.8284 11.1618C16.0782 11.9119 15.0608 12.3333 14 12.3333C12.9391 12.3333 11.9217 11.9119 11.1715 11.1618C10.4214 10.4116 9.99996 9.39421 9.99996 8.33334C9.99996 7.27248 10.4214 6.25506 11.1715 5.50492C11.9217 4.75477 12.9391 4.33334 14 4.33334Z" fill="#1687A7"/>
</svg>
