<svg width="32" height="32" viewBox="0 0 32 32" fill="none" xmlns="http://www.w3.org/2000/svg">
<path d="M22.6667 20.7867L20 18.12L11.2133 9.33336L8.54666 6.66669L6.27999 4.38669C6.15567 4.26237 6.00808 4.16376 5.84566 4.09648C5.68323 4.0292 5.50914 3.99457 5.33332 3.99457C5.15751 3.99457 4.98342 4.0292 4.82099 4.09648C4.65856 4.16376 4.51097 4.26237 4.38666 4.38669C4.13558 4.63776 3.99453 4.97829 3.99453 5.33336C3.99453 5.68843 4.13558 6.02895 4.38666 6.28002L5.10666 6.98669L7.45332 9.33336L19.9067 21.7867L21.8533 23.7334L25.72 27.6134C25.8439 27.7383 25.9914 27.8375 26.1539 27.9052C26.3164 27.9729 26.4906 28.0078 26.6667 28.0078C26.8427 28.0078 27.0169 27.9729 27.1794 27.9052C27.3419 27.8375 27.4894 27.7383 27.6133 27.6134C27.7383 27.4894 27.8375 27.3419 27.9052 27.1795C27.9729 27.017 28.0077 26.8427 28.0077 26.6667C28.0077 26.4907 27.9729 26.3164 27.9052 26.1539C27.8375 25.9914 27.7383 25.844 27.6133 25.72L22.6667 20.7867ZM18.6667 22.6667H6.66666C6.31303 22.6667 5.9739 22.5262 5.72385 22.2762C5.4738 22.0261 5.33332 21.687 5.33332 21.3334V10.6667C5.3374 10.4642 5.38755 10.2653 5.47996 10.0851C5.57237 9.90494 5.70462 9.74816 5.86666 9.62669L3.99999 7.73336C3.5865 8.10312 3.25444 8.55484 3.0249 9.05983C2.79536 9.56482 2.67336 10.112 2.66666 10.6667V21.3334C2.66666 22.3942 3.08808 23.4116 3.83823 24.1618C4.58838 24.9119 5.60579 25.3334 6.66666 25.3334H18.6667C19.4561 25.3347 20.2275 25.0977 20.88 24.6534L18.8533 22.6667C18.7913 22.6729 18.7287 22.6729 18.6667 22.6667ZM28 9.53336C27.5949 9.35095 27.1451 9.29162 26.7066 9.36274C26.268 9.43386 25.86 9.63228 25.5333 9.93336L22.6667 12.6V10.6667C22.6667 9.60582 22.2452 8.58841 21.4951 7.83826C20.7449 7.08812 19.7275 6.66669 18.6667 6.66669H10.44L13.1067 9.33336H18.6667C19.0203 9.33336 19.3594 9.47383 19.6095 9.72388C19.8595 9.97393 20 10.3131 20 10.6667V16.2267L26.2933 22.52C26.5492 22.6159 26.8201 22.6656 27.0933 22.6667C27.4107 22.666 27.7243 22.5978 28.0133 22.4667C28.4066 22.3076 28.7435 22.0349 28.981 21.6834C29.2185 21.3319 29.3458 20.9176 29.3467 20.4934V11.5067C29.3447 11.0809 29.2155 10.6655 28.9755 10.3138C28.7355 9.96217 28.3957 9.69035 28 9.53336ZM26.6667 19.4667L22.92 16L26.6667 12.5334V19.4667Z" fill="#1687A7"/>
</svg>
