<svg width="32" height="32" viewBox="0 0 32 32" fill="none" xmlns="http://www.w3.org/2000/svg">
<path fill-rule="evenodd" clip-rule="evenodd" d="M0 10C0 8.93913 0.421427 7.92172 1.17157 7.17157C1.92172 6.42143 2.93913 6 4 6H19C19.9702 5.99989 20.9073 6.35239 21.637 6.99186C22.3666 7.63133 22.8389 8.51418 22.966 9.476L29.186 6.712C29.4905 6.57634 29.824 6.51893 30.1563 6.54497C30.4886 6.57101 30.8091 6.67969 31.0887 6.86112C31.3683 7.04256 31.5981 7.29099 31.7573 7.58385C31.9164 7.8767 31.9999 8.20469 32 8.538V23.462C31.9997 23.795 31.9163 24.1228 31.7572 24.4154C31.5982 24.708 31.3685 24.9563 31.0892 25.1376C30.8099 25.319 30.4897 25.4278 30.1577 25.454C29.8257 25.4803 29.4924 25.4232 29.188 25.288L22.966 22.524C22.8389 23.4858 22.3666 24.3687 21.637 25.0081C20.9073 25.6476 19.9702 26.0001 19 26H4C2.93913 26 1.92172 25.5786 1.17157 24.8284C0.421427 24.0783 0 23.0609 0 22V10Z" fill="#1687A7"/>
</svg>
